<?xml version="1.0" standalone="no"?>
<!DOCTYPE svg PUBLIC "-//W3C//DTD SVG 20010904//EN"
 "http://www.w3.org/TR/2001/REC-SVG-20010904/DTD/svg10.dtd">
<svg version="1.0" xmlns="http://www.w3.org/2000/svg"
 width="592.000000pt" height="592.000000pt" viewBox="0 0 592.000000 592.000000"
 preserveAspectRatio="xMidYMid meet">
<metadata>
Created by potrace 1.14, written by Peter Selinger 2001-2017
</metadata>
<g transform="translate(0.000000,592.000000) scale(0.100000,-0.100000)"
fill="#000000" stroke="none">
<path d="M3213 5733 c4 -6 3 -14 -3 -18 -5 -3 -10 -2 -10 4 0 10 -31 8 -49 -4
-5 -3 -13 0 -17 6 -4 8 -9 7 -15 -2 -6 -9 -9 -10 -9 -2 0 12 -24 12 -36 0 -4
-4 -13 -2 -21 4 -10 9 -13 8 -13 -2 0 -9 -3 -10 -8 -4 -9 12 -102 13 -102 1 0
-5 -8 -2 -17 5 -15 12 -16 12 -8 -1 6 -12 5 -13 -5 -3 -7 7 -20 9 -29 5 -21
-10 -42 -9 -60 2 -8 5 -16 4 -21 -4 -5 -9 -9 -9 -14 -1 -5 8 -13 8 -27 1 -13
-8 -19 -7 -19 0 0 8 -6 8 -20 0 -14 -8 -20 -8 -20 0 0 6 -5 8 -12 4 -18 -11
-48 -12 -48 -2 0 5 -5 6 -12 2 -6 -4 -178 -8 -382 -9 -204 0 -377 -5 -385 -9
-9 -6 -12 -5 -8 1 4 6 -6 10 -24 11 -19 0 -27 -3 -23 -10 5 -7 2 -8 -7 -3 -15
10 -180 14 -174 5 2 -4 -2 -7 -10 -7 -8 0 -12 4 -10 8 3 4 -6 6 -20 5 -14 0
-25 -3 -25 -6 0 -3 -9 -6 -20 -6 -11 0 -20 5 -20 10 0 6 -5 5 -12 -2 -13 -13
-32 -16 -24 -4 2 4 -4 8 -14 8 -10 0 -17 -3 -15 -7 3 -3 -12 -5 -33 -5 -20 1
-42 -2 -49 -7 -6 -4 -14 -3 -18 3 -5 7 -11 8 -19 1 -6 -5 -24 -12 -40 -15 -15
-3 -33 -9 -40 -15 -7 -6 -17 -6 -26 -1 -15 10 -33 3 -25 -9 2 -5 -7 -6 -20 -3
-16 3 -25 0 -25 -9 0 -7 -3 -9 -6 -6 -4 3 -16 1 -28 -5 -11 -7 -25 -11 -31 -9
-5 1 -15 -5 -21 -14 -7 -9 -15 -16 -18 -16 -6 0 -26 -5 -53 -16 -10 -3 -21 -5
-26 -5 -4 1 -6 -4 -5 -10 2 -7 -5 -12 -14 -12 -10 1 -17 -1 -16 -5 2 -19 -3
-31 -11 -26 -5 3 -16 -2 -24 -10 -9 -8 -18 -15 -22 -15 -3 0 -33 -26 -65 -59
-33 -32 -60 -56 -60 -53 0 3 -6 -3 -14 -13 -8 -11 -12 -23 -10 -27 2 -3 -5 -9
-16 -13 -11 -3 -20 -11 -20 -16 0 -6 -7 -17 -15 -26 -8 -8 -12 -19 -9 -25 4
-7 2 -8 -4 -4 -7 4 -12 3 -12 -3 0 -6 -10 -20 -22 -32 -13 -12 -16 -18 -8 -14
8 4 5 -2 -8 -14 -12 -12 -20 -26 -17 -32 4 -5 1 -9 -5 -9 -6 0 -13 -8 -17 -17
-3 -10 -14 -29 -24 -43 -9 -14 -17 -28 -18 -32 -1 -4 -11 -29 -22 -55 -12 -27
-22 -52 -23 -58 -1 -5 -5 -16 -10 -23 -4 -7 -5 -16 -2 -19 3 -3 1 -13 -6 -20
-12 -15 -15 -30 -19 -90 -1 -18 -5 -33 -8 -33 -3 0 -6 -21 -7 -48 0 -26 -3
-62 -7 -80 -5 -23 -3 -31 4 -26 8 4 8 1 2 -12 -5 -11 -9 -47 -9 -81 1 -35 -3
-63 -8 -63 -5 0 -6 -3 -3 -7 4 -3 2 -12 -4 -19 -7 -8 -6 -14 2 -20 8 -5 9 -3
4 6 -5 9 -4 11 3 6 9 -5 8 -16 -3 -42 -8 -19 -10 -34 -4 -34 6 0 6 -7 -1 -20
-8 -15 -8 -20 2 -20 9 0 9 -3 -2 -10 -8 -5 -10 -10 -5 -10 6 0 10 -20 10 -45
0 -25 -4 -45 -10 -46 -5 0 -1 -4 10 -9 18 -8 18 -9 2 -9 -12 -1 -15 -5 -11
-13 5 -7 7 -25 6 -40 -1 -14 2 -30 8 -33 6 -4 7 -11 3 -18 -10 -17 -10 -167 0
-167 5 0 3 -7 -4 -17 -8 -9 -10 -18 -4 -20 11 -3 11 -85 0 -102 -3 -6 -1 -11
5 -11 6 0 8 -5 4 -11 -6 -11 -9 -100 -4 -124 1 -5 1 -12 0 -15 -6 -15 -4 -80
2 -80 4 0 5 -6 3 -12 -3 -7 -7 -38 -10 -68 -2 -30 -5 -62 -7 -70 -3 -14 -58
-75 -58 -64 0 2 -10 -1 -22 -8 -13 -7 -26 -11 -30 -10 -5 1 -8 -3 -8 -8 0 -5
-3 -10 -7 -9 -15 2 -53 -13 -49 -20 3 -4 -5 -8 -17 -8 -12 -1 -23 -7 -25 -13
-2 -5 -10 -10 -17 -10 -8 0 -18 -7 -23 -16 -5 -9 -12 -15 -16 -15 -11 3 -66
-56 -59 -63 4 -3 0 -6 -7 -6 -7 0 -11 -3 -7 -6 3 -4 0 -13 -8 -21 -11 -11 -34
-70 -39 -103 -1 -3 -4 -9 -7 -15 -3 -5 -5 -201 -5 -435 1 -450 3 -471 49 -500
15 -9 18 -9 11 2 -6 10 -4 10 9 -1 22 -17 100 -24 90 -7 -3 6 3 2 15 -8 13
-11 22 -14 22 -7 0 8 5 9 18 2 11 -6 24 -6 35 0 9 6 17 6 17 2 0 -4 18 -8 40
-7 32 0 47 -6 76 -33 20 -18 33 -33 30 -33 -4 0 0 -7 9 -16 9 -9 19 -29 22
-45 3 -16 10 -29 15 -29 5 0 7 -4 4 -9 -3 -5 1 -14 9 -21 8 -7 15 -19 15 -26
0 -8 5 -14 11 -14 5 0 7 -5 4 -10 -3 -6 1 -13 9 -16 9 -3 16 -12 16 -18 0 -7
9 -22 20 -34 11 -12 20 -25 20 -29 0 -5 9 -15 20 -23 11 -8 20 -19 20 -25 0
-13 47 -56 56 -52 3 1 12 -10 20 -25 8 -16 19 -28 24 -28 5 0 20 -10 34 -22
63 -57 76 -68 81 -68 3 0 15 -9 27 -20 12 -10 26 -17 31 -13 6 3 7 1 4 -4 -6
-10 23 -29 31 -21 2 2 8 -5 13 -15 6 -9 14 -15 18 -13 4 3 18 -4 29 -15 12
-10 35 -22 52 -25 16 -4 30 -11 30 -16 0 -6 7 -8 15 -4 8 3 15 1 15 -4 0 -6
12 -10 26 -10 14 0 23 -4 20 -8 -4 -7 20 -13 67 -15 9 -1 17 -5 17 -9 0 -5 14
-7 32 -6 17 1 33 -2 35 -8 2 -5 26 -8 54 -7 38 3 49 0 43 -9 -6 -10 -4 -10 8
0 12 10 18 10 23 1 6 -8 10 -8 15 2 7 10 11 10 24 0 12 -11 16 -11 16 -1 0 10
3 10 15 0 12 -10 15 -10 15 1 0 11 2 11 10 -1 6 -10 10 -11 10 -2 0 6 5 12 11
12 5 0 8 -4 5 -8 -2 -4 4 -8 15 -8 10 0 19 4 19 9 0 4 5 5 12 1 14 -9 100 -10
114 -1 6 3 16 2 23 -3 8 -4 27 -4 43 0 15 5 26 6 24 2 -2 -4 15 -8 40 -8 28
-1 41 2 37 9 -4 6 -1 7 8 2 20 -13 329 -13 329 0 0 7 3 7 8 0 7 -10 224 -16
217 -6 -2 4 7 6 20 6 13 0 21 -3 19 -6 -2 -3 39 -5 91 -5 52 1 95 -1 95 -6 0
-4 11 -3 24 2 15 5 27 5 35 -3 8 -8 11 -8 11 2 0 9 4 8 15 -3 9 -8 22 -13 31
-9 8 3 23 -4 34 -17 11 -13 20 -19 20 -15 0 4 13 -5 29 -21 34 -35 110 -97
125 -103 6 -2 19 -13 29 -24 9 -11 17 -17 17 -14 0 4 9 -1 20 -11 12 -9 22
-15 23 -12 2 3 15 -7 31 -23 15 -15 31 -25 36 -22 4 3 11 -2 14 -11 3 -8 10
-12 16 -9 5 3 10 2 10 -4 0 -5 9 -13 20 -16 11 -4 18 -11 15 -16 -3 -5 2 -6
11 -2 12 4 15 3 10 -5 -5 -8 0 -12 13 -12 12 0 21 -4 21 -10 0 -5 7 -10 15
-10 8 0 15 -4 15 -10 0 -5 7 -10 15 -10 9 0 18 -7 21 -15 4 -8 10 -12 15 -9 5
3 9 1 9 -4 0 -5 13 -15 30 -22 16 -7 28 -16 25 -20 -3 -5 9 -13 25 -19 17 -5
30 -14 30 -19 0 -6 11 -13 25 -16 15 -4 25 -14 25 -24 0 -15 2 -15 10 -2 8 13
10 13 10 -2 0 -10 10 -20 24 -24 14 -3 27 -12 30 -21 3 -8 10 -11 16 -8 5 3
10 2 10 -4 0 -6 10 -20 23 -32 12 -12 15 -18 7 -14 -12 7 -13 6 -4 -6 12 -17
18 -72 6 -65 -4 3 -8 -5 -9 -17 -1 -30 -14 -67 -23 -67 -5 0 -7 -8 -6 -17 2
-10 -5 -25 -15 -34 -10 -9 -16 -19 -12 -22 3 -4 -2 -9 -11 -13 -9 -3 -16 -13
-16 -20 0 -8 -7 -17 -15 -20 -8 -4 -15 -13 -15 -21 0 -8 -4 -12 -9 -8 -5 3
-13 -4 -16 -16 -4 -13 -12 -18 -21 -15 -8 3 -13 2 -10 -3 3 -5 -1 -14 -9 -21
-24 -20 -18 -26 30 -27 25 -1 45 2 45 7 0 4 7 11 16 14 9 4 13 2 8 -5 -5 -8
-1 -8 13 0 11 6 23 7 27 4 3 -3 6 -2 6 4 0 5 6 10 14 10 8 0 30 7 50 17 20 9
41 14 48 10 6 -4 8 -3 4 4 -4 6 8 16 28 23 19 7 32 17 29 23 -4 5 1 7 11 3 10
-4 19 -1 22 8 4 8 10 15 15 15 10 0 57 32 90 60 37 32 48 40 55 40 4 0 24 19
46 42 21 23 38 38 38 33 0 -4 10 5 22 20 12 16 37 43 55 62 18 18 33 37 33 43
0 6 5 8 10 5 6 -3 10 -2 10 4 0 9 26 43 68 88 13 14 21 27 18 30 -2 3 12 22
32 42 20 21 38 44 40 52 2 8 12 22 24 32 11 9 17 17 13 17 -5 0 -1 8 8 18 10
10 14 22 11 25 -4 4 1 9 10 13 9 3 16 12 16 20 0 8 5 14 11 14 5 0 7 4 4 10
-3 5 -2 10 3 10 5 0 17 18 27 40 10 22 23 40 28 40 6 0 7 3 4 6 -4 4 3 20 14
35 11 16 17 29 14 29 -18 0 73 72 97 77 15 3 28 10 28 15 0 6 7 8 15 4 9 -3
24 3 34 13 11 11 22 17 25 14 3 -3 12 0 20 6 8 7 20 10 26 6 5 -3 10 1 10 10
0 9 4 14 9 10 5 -3 12 -1 16 5 4 6 11 8 16 5 5 -4 9 -1 9 4 0 6 7 11 15 11 8
0 15 3 15 8 0 4 14 13 30 20 17 8 27 18 24 24 -4 7 -2 8 4 4 6 -3 24 7 41 23
16 16 32 26 35 23 3 -3 6 0 6 7 0 7 5 9 10 6 6 -3 10 0 10 7 0 8 9 20 21 28
28 21 103 94 101 100 -1 3 8 15 18 28 11 12 20 26 20 31 0 5 7 14 15 21 8 7
12 16 9 21 -3 5 -1 9 4 9 12 0 55 80 48 87 -3 3 2 12 10 20 8 8 12 19 9 24 -4
5 -1 9 5 9 6 0 8 5 5 10 -3 6 -2 10 3 10 9 0 11 8 14 55 1 14 5 25 9 25 7 0
24 69 20 84 -1 5 1 16 5 25 7 17 10 42 15 109 1 23 7 42 12 42 5 0 4 7 -3 15
-7 8 -8 15 -3 15 13 0 11 43 -2 52 -7 5 -7 8 0 8 6 0 10 32 10 77 0 43 5 81
10 85 7 5 7 8 0 8 -11 0 -11 78 -1 88 3 3 1 11 -5 19 -6 7 -8 13 -3 13 5 0 9
22 9 50 0 27 -4 50 -10 50 -7 0 -7 3 0 8 6 4 10 25 10 47 0 22 -4 43 -10 47
-6 5 -4 8 5 8 13 0 13 1 0 10 -11 7 -11 10 -2 10 10 0 10 5 2 20 -8 15 -8 20
2 20 9 0 9 3 -2 10 -11 7 -11 10 -2 10 7 0 10 5 6 12 -8 13 -12 78 -4 78 3 0
3 40 0 90 -3 57 -1 90 5 90 6 0 3 5 -5 10 -8 5 -10 10 -5 10 6 0 10 46 10 117
0 67 -4 121 -10 125 -6 5 -5 8 2 8 9 0 10 7 3 25 -7 18 -6 25 3 25 8 0 7 4 -3
10 -12 8 -12 10 -1 10 11 0 11 3 0 17 -10 11 -10 14 -1 9 6 -4 12 -2 12 3 0 6
0 13 0 16 0 12 37 41 50 40 8 -1 20 0 25 4 6 3 17 6 25 6 8 0 21 4 27 8 9 6
11 3 6 -10 -6 -16 -4 -16 16 2 12 11 22 15 21 10 -5 -22 1 -29 10 -15 9 13 11
13 20 0 5 -8 10 -10 10 -4 0 15 63 16 72 1 6 -9 8 -9 8 1 0 6 5 12 11 12 5 0
7 -5 3 -12 -5 -7 -3 -8 7 -2 8 5 44 9 80 9 72 0 144 29 134 53 -3 7 0 10 6 7
7 -5 9 129 5 427 -4 451 -5 478 -17 478 -5 0 -6 9 -4 20 2 11 0 18 -6 15 -5
-4 -9 -1 -9 4 0 19 -3 25 -26 63 -13 21 -24 45 -24 53 0 9 -3 14 -7 12 -9 -6
-34 18 -27 25 2 3 -9 17 -26 31 -16 15 -30 24 -30 21 0 -4 -8 3 -19 14 -10 12
-24 22 -30 22 -7 0 -19 7 -27 15 -9 8 -33 18 -55 21 -21 4 -39 12 -39 18 0 6
-5 4 -10 -4 -5 -8 -10 -10 -10 -5 0 6 -14 12 -31 13 -18 1 -37 6 -43 9 -6 4
-21 6 -33 5 -11 -2 -24 2 -28 8 -3 5 -10 8 -15 5 -5 -3 -11 4 -15 15 -3 11
-11 20 -16 20 -6 0 -7 5 -4 10 3 6 1 10 -4 10 -6 0 -11 9 -11 20 0 11 -4 20
-10 20 -5 0 -10 5 -10 11 0 5 6 7 13 4 6 -4 2 2 -10 13 -12 11 -19 22 -16 26
3 3 0 12 -7 21 -7 9 -10 18 -6 22 3 3 -5 21 -19 38 -13 18 -21 35 -18 39 4 3
1 6 -5 6 -7 0 -12 7 -12 15 0 8 -4 15 -10 15 -5 0 -10 7 -10 15 0 8 -4 15 -10
15 -5 0 -10 5 -10 10 0 6 -9 20 -20 32 -10 12 -17 25 -14 30 3 4 -2 8 -10 8
-9 0 -16 6 -16 13 0 7 -13 24 -30 39 -16 14 -26 28 -23 32 4 4 -3 9 -15 13
-12 3 -20 8 -19 12 2 3 -7 16 -20 28 -13 12 -23 18 -23 12 0 -5 -13 3 -29 18
-44 42 -58 52 -65 46 -3 -3 -8 2 -12 11 -3 9 -10 14 -14 11 -5 -3 -15 2 -23
10 -9 8 -23 15 -31 15 -9 0 -16 4 -16 9 0 8 -37 24 -52 22 -5 -1 -8 4 -8 10 0
5 -4 8 -9 4 -5 -3 -12 -1 -16 4 -3 6 -12 8 -20 4 -8 -3 -15 0 -15 5 0 12 -68
34 -81 26 -4 -2 -10 0 -14 6 -3 5 -17 10 -31 10 -14 0 -23 4 -20 8 3 5 -1 9
-9 9 -8 0 -11 -5 -8 -11 4 -6 -1 -5 -10 3 -10 8 -20 11 -24 8 -3 -4 -12 1 -20
11 -8 9 -11 11 -7 3 5 -10 1 -11 -16 -6 -13 4 -43 9 -68 10 -24 2 -46 6 -49 9
-3 3 -13 1 -23 -4 -10 -5 -20 -6 -24 -2 -4 3 -40 7 -79 7 -40 1 -78 4 -84 8
-6 4 -14 4 -17 -1 -5 -9 -154 -7 -163 2 -4 3 -12 1 -20 -5 -10 -9 -13 -8 -13
1 0 10 -3 10 -15 0 -8 -7 -15 -9 -15 -4 0 5 -18 9 -40 9 -22 0 -40 -3 -40 -6
0 -3 -7 -6 -15 -6 -8 0 -15 3 -15 7 0 8 -56 3 -71 -5 -5 -4 -9 -2 -9 3 0 11
-40 10 -57 -1 -17 -11 -35 1 -26 16 4 7 0 6 -10 -2 -9 -7 -17 -11 -17 -7 0 3
-11 1 -25 -4 -16 -6 -26 -6 -31 1 -4 7 -10 6 -19 -1 -10 -8 -15 -8 -20 0 -5 8
-10 8 -20 0 -9 -8 -17 -6 -29 5 -9 9 -16 12 -16 8 0 -5 -29 -9 -65 -8 -39 0
-65 -3 -65 -10 0 -6 -4 -5 -8 2 -4 6 -21 10 -37 8 -17 -1 -36 2 -44 9 -11 8
-13 8 -8 -1z"/>
<path d="M400 4079 c0 -5 5 -7 10 -4 6 3 10 8 10 11 0 2 -4 4 -10 4 -5 0 -10
-5 -10 -11z"/>
</g>
</svg>
